<?xml version="1.0" encoding="utf-8"?>
<!-- Generator: Adobe Illustrator 21.1.0, SVG Export Plug-In . SVG Version: 6.00 Build 0)  -->
<svg version="1.1" id="Layer_1" xmlns="http://www.w3.org/2000/svg" xmlns:xlink="http://www.w3.org/1999/xlink" x="0px" y="0px"
	 viewBox="0 0 51.6 51.6" style="enable-background:new 0 0 51.6 51.6;" xml:space="preserve">
<style type="text/css">
	.st0{fill:none;stroke:#47C0B7;stroke-miterlimit:10;}
	.st1{fill:#47C0B7;}
</style>
<rect x="0.8" y="0.8" class="st0" width="50" height="50"/>
<path class="st1" d="M28.2,37.8c-0.3-0.2-0.7-0.5-0.9-0.7c-0.2-0.2-0.6-0.6-0.8-0.8c-0.2-0.2-0.7-0.9-0.8-1.1
	c-1.4-2.1-5.2-8.3-5.2-8.3h-7.1v12h-1.5V12.7h10.8c4.2,0,6.8,3.2,6.8,7.1s-2.8,7.1-7.1,7.1l5.1,8.1L28,36l1.1,1l0.8,0.6l1.1,0.3
	l-1.6,0.5C29.4,38.4,28.5,38,28.2,37.8z M22.6,25.5c3.3,0,5.3-2.6,5.3-5.7s-2.1-5.7-5.3-5.7h-9.2v11.5H22.6z"/>
<path class="st1" d="M27,34.3c1,1.8,3.1,3.3,5.4,3.3c3.5,0,5.8-2.7,5.8-6.3V12.6h1.5v18c0,5.2-2.9,8.3-7.4,8.3
	c-3.2,0-5.8-1.8-6.9-4.5c-0.1-0.2-0.2-0.5-0.3-0.7c-0.1-0.2-0.1-0.4-0.1-0.5c-0.1-0.2-0.1-0.5-0.1-0.7c0-0.2,0-0.3,0-0.5L24.7,32
	l0.4-0.2l0.1,0.1"/>
</svg>
